<svg xmlns="http://www.w3.org/2000/svg" xmlns:xlink="http://www.w3.org/1999/xlink" version="1.1" xml:space="preserve" viewBox="0 -31.33 810.9 481.33">
<desc>Created with Fabric.js 5.2.4</desc>
<defs>
</defs>
<rect x="0" y="0" width="100%" height="100%" fill="transparent"/>
<g transform="matrix(1 0 0 1 400 225)" id="dae4287d-a641-425a-9cc0-ffb256153697">
<rect style="stroke: none; stroke-width: 1; stroke-dasharray: none; stroke-linecap: butt; stroke-dashoffset: 0; stroke-linejoin: miter; stroke-miterlimit: 4; fill: rgb(255,255,255); fill-rule: nonzero; opacity: 1; visibility: hidden;" vector-effect="non-scaling-stroke" x="-400" y="-225" rx="0" ry="0" width="800" height="450"/>
</g>
<g transform="matrix(0 0 0 0 0 0)" id="425d85c7-9227-43a5-baf6-9676ebe15676">
</g>
<g transform="matrix(0.72 0 0 0.72 416.92 211.4)">
<path style="stroke: none; stroke-width: 1; stroke-dasharray: none; stroke-linecap: butt; stroke-dashoffset: 0; stroke-linejoin: miter; stroke-miterlimit: 4; fill: rgb(96,48,177); fill-rule: nonzero; opacity: 0.1;" vector-effect="non-scaling-stroke" transform=" translate(-600.04, -469.18)" d="M 1147.24 346.25 C 1147.36 251.25 1071.15 172.85 976.24 170.41 C 897.7848483419065 168.33735598555003 827.4654229023606 218.5363654403622 803.94 293.4099999999999 C 779.7025239969871 289.47594163600746 754.9120633128828 290.6201167445046 731.1400000000001 296.77 C 645.1701426962536 319.13018529910295 554.9098573037465 319.13018529910295 468.9400000000001 296.7699999999999 C 445.1679366871174 290.6201167445046 420.377476003013 289.4759416360075 396.1400000000001 293.40999999999997 C 372.61457709763954 218.53636544036215 302.2951516580936 168.3373559855499 223.84 170.40999999999997 C 128.8400000000001 172.84999999999997 52.68000000000009 251.25999999999996 52.84000000000009 346.25 C 52.90261124443042 409.8522273623931 87.34834348378722 468.45013654337106 142.89000000000007 499.44 C 125.52256097218009 527.2743634147334 116.33274333351734 559.4317946691792 116.37000000000009 592.24 C 116.3700000000001 688.59 194.93000000000012 767.55 291.2800000000001 767.96 C 325.9877371915081 768.169172078871 359.97169456631866 758.0387361066627 388.9000000000001 738.86 C 454.32847299816865 782.0539137154263 540.4571234880009 776.6724030571559 600 725.67 C 659.5577085251431 776.7120619495765 745.7339123391414 782.0945040762299 811.18 738.8600000000001 C 840.103824315408 758.0528605399783 874.0881205853262 768.1973226717691 908.8 768 C 1005.15 767.59 1083.74 688.63 1083.71 592.28 C 1083.7472566664828 559.4717946691792 1074.55743902782 527.3143634147334 1057.19 499.48 C 1112.744145842368 468.4831514871841 1147.1918713047885 409.8665499035451 1147.24 346.25 Z" stroke-linecap="round"/>
</g>
<g transform="matrix(0.72 0 0 0.72 298.44 193.29)">
<path style="stroke: none; stroke-width: 1; stroke-dasharray: none; stroke-linecap: butt; stroke-dashoffset: 0; stroke-linejoin: miter; stroke-miterlimit: 4; fill: rgb(47,46,65); fill-rule: nonzero; opacity: 1;" vector-effect="non-scaling-stroke" transform=" translate(-435.48, -444.03)" d="M 480.48 414.63 C 480.48 414.63 428.48 410.96 416.48 414.96 C 404.48 418.96 380.48 471.96 380.48 471.96 L 457.48 474.96 L 490.48 467.96 Z" stroke-linecap="round"/>
</g>
<g transform="matrix(0.72 0 0 0.72 550.08 380.45)">
<polygon style="stroke: none; stroke-width: 1; stroke-dasharray: none; stroke-linecap: butt; stroke-dashoffset: 0; stroke-linejoin: miter; stroke-miterlimit: 4; fill: rgb(63,61,86); fill-rule: nonzero; opacity: 1;" vector-effect="non-scaling-stroke" points="-47.5,64 -44.5,-62.29 47.5,-64 47.5,64 -47.5,64 "/>
</g>
<g transform="matrix(0.72 0 0 0.72 374.58 279.97)">
<path style="stroke: none; stroke-width: 1; stroke-dasharray: none; stroke-linecap: butt; stroke-dashoffset: 0; stroke-linejoin: miter; stroke-miterlimit: 4; fill: rgb(47,46,65); fill-rule: nonzero; opacity: 1;" vector-effect="non-scaling-stroke" transform=" translate(-541.23, -564.41)" d="M 559.87 500.09 C 566.01 508.45 567 519.4 567.77 529.74 Q 570.01 559.74 572.23 589.74 C 573.23 603.17 574.23 616.74 571.89 630.04 C 571.764446415678 631.0976657221362 571.4241565658241 632.1185352716977 570.89 633.04 C 569.83 634.62 567.89 635.25 565.99 635.68 C 547.65 639.9699999999999 528.5 635.76 510.14 631.55 C 506.76 606.25 512.23 580.49 520.9499999999999 556.55 C 526.27 541.9399999999999 532.78 527.8199999999999 539.3399999999999 513.74 C 542.03 507.99 544.56 497.57 548.9499999999999 493.07 C 553.91 487.9 556.57 495.61 559.87 500.09 Z" stroke-linecap="round"/>
</g>
<g transform="matrix(0.72 0 0 0.72 374.58 279.97)">
<path style="stroke: none; stroke-width: 1; stroke-dasharray: none; stroke-linecap: butt; stroke-dashoffset: 0; stroke-linejoin: miter; stroke-miterlimit: 4; fill: rgb(0,0,0); fill-rule: nonzero; opacity: 0.1;" vector-effect="non-scaling-stroke" transform=" translate(-541.23, -564.41)" d="M 559.87 500.09 C 566.01 508.45 567 519.4 567.77 529.74 Q 570.01 559.74 572.23 589.74 C 573.23 603.17 574.23 616.74 571.89 630.04 C 571.764446415678 631.0976657221362 571.4241565658241 632.1185352716977 570.89 633.04 C 569.83 634.62 567.89 635.25 565.99 635.68 C 547.65 639.9699999999999 528.5 635.76 510.14 631.55 C 506.76 606.25 512.23 580.49 520.9499999999999 556.55 C 526.27 541.9399999999999 532.78 527.8199999999999 539.3399999999999 513.74 C 542.03 507.99 544.56 497.57 548.9499999999999 493.07 C 553.91 487.9 556.57 495.61 559.87 500.09 Z" stroke-linecap="round"/>
</g>
<g transform="matrix(0.72 0 0 0.72 445.73 323.77)">
<path style="stroke: none; stroke-width: 1; stroke-dasharray: none; stroke-linecap: butt; stroke-dashoffset: 0; stroke-linejoin: miter; stroke-miterlimit: 4; fill: rgb(251,190,190); fill-rule: nonzero; opacity: 1;" vector-effect="non-scaling-stroke" transform=" translate(-640.06, -625.25)" d="M 621.54 599 C 625.65 594.74 629.88 590.4 635.1999999999999 587.8 C 641.81 584.56 649.43 584.3499999999999 656.6999999999999 583.14 C 662.41 582.14 668.04 580.58 673.8299999999999 580.28 C 679.6199999999999 579.9799999999999 685.8299999999999 581.1999999999999 690.04 585.14 C 695.04 589.74 696.3199999999999 596.93 697.3399999999999 603.61 C 699.79 619.74 701.67 637.47 692.93 651.24 C 687.02 660.5600000000001 676.79 666.67 665.9899999999999 668.89 C 659.2899999999998 670.27 652.3899999999999 670.27 645.5499999999998 670.26 L 581.3499999999998 670.1899999999999 C 580.1599999999997 670.1899999999999 580.9799999999998 651.53 581.2599999999998 649.8 C 582.1291686366362 644.10862403348 584.3551659730107 638.7099802623655 587.7499999999998 634.06 C 597.3 621.45 610.53 610.42 621.54 599 Z" stroke-linecap="round"/>
</g>
<g transform="matrix(0.72 0 0 0.72 445.73 323.77)">
<path style="stroke: none; stroke-width: 1; stroke-dasharray: none; stroke-linecap: butt; stroke-dashoffset: 0; stroke-linejoin: miter; stroke-miterlimit: 4; fill: rgb(0,0,0); fill-rule: nonzero; opacity: 0.1;" vector-effect="non-scaling-stroke" transform=" translate(-640.06, -625.25)" d="M 621.54 599 C 625.65 594.74 629.88 590.4 635.1999999999999 587.8 C 641.81 584.56 649.43 584.3499999999999 656.6999999999999 583.14 C 662.41 582.14 668.04 580.58 673.8299999999999 580.28 C 679.6199999999999 579.9799999999999 685.8299999999999 581.1999999999999 690.04 585.14 C 695.04 589.74 696.3199999999999 596.93 697.3399999999999 603.61 C 699.79 619.74 701.67 637.47 692.93 651.24 C 687.02 660.5600000000001 676.79 666.67 665.9899999999999 668.89 C 659.2899999999998 670.27 652.3899999999999 670.27 645.5499999999998 670.26 L 581.3499999999998 670.1899999999999 C 580.1599999999997 670.1899999999999 580.9799999999998 651.53 581.2599999999998 649.8 C 582.1291686366362 644.10862403348 584.3551659730107 638.7099802623655 587.7499999999998 634.06 C 597.3 621.45 610.53 610.42 621.54 599 Z" stroke-linecap="round"/>
</g>
<g transform="matrix(0.72 0 0 0.72 267.41 160.13)">
<path style="stroke: none; stroke-width: 1; stroke-dasharray: none; stroke-linecap: butt; stroke-dashoffset: 0; stroke-linejoin: miter; stroke-miterlimit: 4; fill: rgb(251,190,190); fill-rule: nonzero; opacity: 1;" vector-effect="non-scaling-stroke" transform=" translate(-392.37, -397.98)" d="M 364.92 365.55 L 352.48 381.86 C 343.56 393.57 333.17 406.18 318.62 408.39 C 317.72 411.45 320.72 414.15 323.38 415.9 C 361.21 440.71999999999997 405.3 456.60999999999996 450.5 458.64 C 456.32 458.90999999999997 463.5 458.09 465.72 452.69 C 467.72 447.8 464.06 442.48 460.16 438.91 C 454.31 433.54 446.8 428.31 446.23 420.39000000000004 C 445.85 415.07000000000005 448.85 410.19000000000005 450.59000000000003 405.14000000000004 C 452.96000000000004 398.26000000000005 453.01000000000005 390.83000000000004 453.04 383.56000000000006 C 453.04 380.94000000000005 453.04 378.2300000000001 452.04 375.81000000000006 C 451.06577421750956 373.79604281391585 449.7069150942962 371.9921573278502 448.04 370.50000000000006 C 434.47 357.09000000000003 416.16 350.50000000000006 398.87 343.4100000000001 C 393.07 341.0200000000001 382.41 333.2300000000001 377.33 339.9200000000001 C 374.95 343.05000000000007 374.97999999999996 348.9200000000001 373.22999999999996 352.6600000000001 C 370.9184791427149 357.23549888490055 368.1332295253791 361.5558198918149 364.92 365.55 Z" stroke-linecap="round"/>
</g>
<g transform="matrix(0.72 0 0 0.72 267.41 160.13)">
<path style="stroke: none; stroke-width: 1; stroke-dasharray: none; stroke-linecap: butt; stroke-dashoffset: 0; stroke-linejoin: miter; stroke-miterlimit: 4; fill: rgb(0,0,0); fill-rule: nonzero; opacity: 0.1;" vector-effect="non-scaling-stroke" transform=" translate(-392.37, -397.98)" d="M 364.92 365.55 L 352.48 381.86 C 343.56 393.57 333.17 406.18 318.62 408.39 C 317.72 411.45 320.72 414.15 323.38 415.9 C 361.21 440.71999999999997 405.3 456.60999999999996 450.5 458.64 C 456.32 458.90999999999997 463.5 458.09 465.72 452.69 C 467.72 447.8 464.06 442.48 460.16 438.91 C 454.31 433.54 446.8 428.31 446.23 420.39000000000004 C 445.85 415.07000000000005 448.85 410.19000000000005 450.59000000000003 405.14000000000004 C 452.96000000000004 398.26000000000005 453.01000000000005 390.83000000000004 453.04 383.56000000000006 C 453.04 380.94000000000005 453.04 378.2300000000001 452.04 375.81000000000006 C 451.06577421750956 373.79604281391585 449.7069150942962 371.9921573278502 448.04 370.50000000000006 C 434.47 357.09000000000003 416.16 350.50000000000006 398.87 343.4100000000001 C 393.07 341.0200000000001 382.41 333.2300000000001 377.33 339.9200000000001 C 374.95 343.05000000000007 374.97999999999996 348.9200000000001 373.22999999999996 352.6600000000001 C 370.9184791427149 357.23549888490055 368.1332295253791 361.5558198918149 364.92 365.55 Z" stroke-linecap="round"/>
</g>
<g transform="matrix(0.72 0 0 0.72 305.28 95.69)">
<circle style="stroke: none; stroke-width: 1; stroke-dasharray: none; stroke-linecap: butt; stroke-dashoffset: 0; stroke-linejoin: miter; stroke-miterlimit: 4; fill: rgb(251,190,190); fill-rule: nonzero; opacity: 1;" vector-effect="non-scaling-stroke" cx="0" cy="0" r="84"/>
</g>
<g transform="matrix(0.72 0 0 0.72 258.78 294.17)">
<path style="stroke: none; stroke-width: 1; stroke-dasharray: none; stroke-linecap: butt; stroke-dashoffset: 0; stroke-linejoin: miter; stroke-miterlimit: 4; fill: rgb(47,46,65); fill-rule: nonzero; opacity: 1;" vector-effect="non-scaling-stroke" transform=" translate(-380.39, -584.14)" d="M 422.84 444 C 410.84 446.57 398.4 442.94 386.63 439.35 C 369.69 434.18 351.44 428.06 341.56 413.35 C 339.26 409.92 337.33 405.95000000000005 333.74 403.92 C 325.99 399.53000000000003 317.02 406.62 310.55 412.73 C 278.99 442.53000000000003 236.55 461.91 213.85000000000002 498.89 C 200.9 520 195.68 545 194.32 569.74 C 193.63 582.28 193.9 595.09 197.65 607.07 C 208.93 643.07 248.55 664.2 260.88 699.85 C 268.37 721.5 262.96 742.4200000000001 259.78 765.11 L 560.14 765.73 C 554.196498849081 723.0013199103986 551.7983190423414 679.8541518393573 552.9699999999998 636.73 C 553.22 627.46 553.64 618.11 555.9200000000001 609.11 C 557.7800000000001 601.78 560.9200000000001 594.63 560.9900000000001 587.11 C 561.2100000000002 573.28 551.4700000000001 560.3100000000001 553.5200000000001 546.63 C 555.57 532.9499999999999 568.95 521.63 566.4600000000002 508.15 C 563.4600000000002 492.15 560.0200000000001 474.92999999999995 553.2800000000002 460.15 C 549.7800000000002 452.42999999999995 545.8400000000001 444.71999999999997 539.9100000000002 438.65 C 533.9800000000002 432.58 526.4800000000002 428.51 518.7600000000002 425.16999999999996 C 500.38097410074676 417.24336666161645 480.5443702544521 413.2576502782806 460.53000000000026 413.46999999999997 C 458.72114671011263 413.37222442503304 456.91267236706494 413.66908719455216 455.2300000000002 414.34 C 450.3000000000002 416.7 450.3400000000002 423.53 448.8600000000002 428.79999999999995 C 446 439 432.91 447.26 422.84 444 Z" stroke-linecap="round"/>
</g>
<g transform="matrix(0.65 -0.3 0.3 0.65 374.75 285.06)">
<rect style="stroke: none; stroke-width: 1; stroke-dasharray: none; stroke-linecap: butt; stroke-dashoffset: 0; stroke-linejoin: miter; stroke-miterlimit: 4; fill: rgb(208,210,213); fill-rule: nonzero; opacity: 1;" vector-effect="non-scaling-stroke" x="-1" y="-15.5" rx="0" ry="0" width="2" height="31"/>
</g>
<g transform="matrix(0.65 -0.3 0.3 0.65 390.59 318.18)">
<rect style="stroke: none; stroke-width: 1; stroke-dasharray: none; stroke-linecap: butt; stroke-dashoffset: 0; stroke-linejoin: miter; stroke-miterlimit: 4; fill: rgb(96,48,177); fill-rule: nonzero; opacity: 1;" vector-effect="non-scaling-stroke" x="-6" y="-48.5" rx="0" ry="0" width="12" height="97"/>
</g>
<g transform="matrix(0.72 0 0 0.72 284.69 365.56)">
<path style="stroke: none; stroke-width: 1; stroke-dasharray: none; stroke-linecap: butt; stroke-dashoffset: 0; stroke-linejoin: miter; stroke-miterlimit: 4; fill: rgb(251,190,190); fill-rule: nonzero; opacity: 1;" vector-effect="non-scaling-stroke" transform=" translate(-416.38, -683.28)" d="M 214.84 632.39 C 211.13 658.13 222.91 683.22 228.57 708.61 C 232.76 727.4 233.57 746.78 233.63 766.03 C 234.2 765.85 234.1 766.22 234.63 766.03 L 439.91 766.03 C 472.77000000000004 736.7099999999999 506.55 706.9599999999999 549.76 698.42 C 555.96 697.1999999999999 562.28 696.42 568.26 694.42 C 591.1 686.7199999999999 603.9399999999999 663.06 613.9399999999999 641.13 C 617.4899999999999 633.34 620.9399999999999 624 616.5899999999999 616.61 C 615.0435397347577 614.193639259986 613.0310082676006 612.109717318487 610.67 610.48 C 597.0608994301847 600.5195226670792 579.4536787013376 597.8107194780258 563.48 603.22 C 534.62 613.2900000000001 520.48 646.32 494.58000000000004 662.49 C 482.58000000000004 669.96 468.63000000000005 673.49 455.74 679.23 C 436.49 687.84 419.74 701.44 400.35 709.6800000000001 C 374.08000000000004 720.83 344.58000000000004 721.5100000000001 317.35 730.0500000000001 C 327.20000000000005 718.7400000000001 330.59000000000003 702.7900000000001 328.8 687.9000000000001 C 327.01 673.0100000000001 320.52000000000004 659.0600000000001 312.58000000000004 646.3400000000001 C 305.46000000000004 634.9400000000002 296.33000000000004 623.7400000000001 283.58000000000004 619.5800000000002 C 261 612.23 238.16 628.18 214.84 632.39 Z" stroke-linecap="round"/>
</g>
<g transform="matrix(0.72 0 0 0.72 300.36 67.9)">
<path style="stroke: rgb(59,39,0); stroke-width: 1; stroke-dasharray: none; stroke-linecap: butt; stroke-dashoffset: 0; stroke-linejoin: miter; stroke-miterlimit: 4; fill: rgb(78,54,12); fill-rule: nonzero; opacity: 1;" vector-effect="non-scaling-stroke" transform=" translate(-438.16, -269.87)" d="M 366.48 347 C 375.05 340.37 376.70000000000005 334.77 378.83000000000004 324.15 C 380.16 317.5 380.30000000000007 309.94 385.14000000000004 305.15 C 394.97 295.51 414.02000000000004 306.28 424.44000000000005 297.28 C 430.94000000000005 291.67999999999995 430.61000000000007 281.01 436.6700000000001 274.94 C 441.12000000000006 270.46999999999997 447.95000000000005 269.55 454.26000000000005 269.27 C 463.7781586883736 268.8506112172872 473.31462409499557 269.3394890084975 482.73999999999995 270.7299999999999 C 489.4700000000001 271.72999999999996 496.1700000000001 273.16999999999996 502.9700000000001 273.11999999999995 C 516.57 273.0199999999999 529.33 266.97999999999996 541.58 261.06999999999994 C 539.6086913693474 260.95555089093517 537.8548982422731 259.7799734018264 537 258 C 541.7422074855691 255.4969793068367 546.6503724023729 253.32188375827354 551.6899999999999 251.49000000000004 C 550.37 247.43 541.5100000000001 250.67000000000002 541.0600000000001 246.41 C 541.0712615248473 245.30264602566922 541.4833599360549 244.23687427254623 542.22 243.41 L 550.86 231.09 C 542.65 233.19 534.36 227.51 529.19 220.79 C 524.0200000000001 214.07 520.5500000000001 206.01999999999998 514.48 200.1 C 502.33000000000004 188.26999999999998 483.39000000000004 187.95 466.48 188.37 L 435.15000000000003 189.14000000000001 C 420.61 189.50000000000003 405.91 189.89000000000001 391.83000000000004 193.55 C 385.43000000000006 195.21 379.12000000000006 197.55 373.74000000000007 201.45000000000002 C 366.9800000000001 206.3 362.00000000000006 213.24 355.6000000000001 218.55 C 347.0300000000001 225.66000000000003 335.87000000000006 229.94 329.49000000000007 239.06 C 325.4962853053289 244.84234691184486 323.87144970727854 251.93579218791484 324.95000000000005 258.88 C 326.20000000000005 266.64 330.75000000000006 273.51 332.59000000000003 281.15999999999997 C 335.73 294.28999999999996 330.59000000000003 308.29999999999995 333.59000000000003 321.47999999999996 C 335.8 331.35999999999996 342.28000000000003 339.65999999999997 348.59000000000003 347.58 C 350.04 349.4 351.78000000000003 351.38 354.1 351.47999999999996 C 355.52680168606486 351.3858418810422 356.92057015624005 351.00850456350696 358.20000000000005 350.36999999999995" stroke-linecap="round"/>
</g>
<g transform="matrix(0.72 0 0 0.72 526.68 385.42)">
<polygon style="stroke: none; stroke-width: 1; stroke-dasharray: none; stroke-linecap: butt; stroke-dashoffset: 0; stroke-linejoin: miter; stroke-miterlimit: 4; fill: rgb(63,61,86); fill-rule: nonzero; opacity: 1;" vector-effect="non-scaling-stroke" points="253.5,-35.4 253.5,-14.4 209.5,40.6 -253.5,27.6 -253.5,4.6 -129.47,-40.61 253.5,-35.4 "/>
</g>
<g transform="matrix(0.72 0 0 0.72 526.68 387.29)">
<polygon style="stroke: none; stroke-width: 1; stroke-dasharray: none; stroke-linecap: butt; stroke-dashoffset: 0; stroke-linejoin: miter; stroke-miterlimit: 4; fill: rgb(0,0,0); fill-rule: nonzero; opacity: 0.1;" vector-effect="non-scaling-stroke" points="253.5,-38 253.5,-17 209.5,38 -253.5,25 -253.5,4 206.5,15 253.5,-38 "/>
</g>
<g transform="matrix(0.72 0 0 0.72 569.88 372.53)">
<polygon style="stroke: none; stroke-width: 1; stroke-dasharray: none; stroke-linecap: butt; stroke-dashoffset: 0; stroke-linejoin: miter; stroke-miterlimit: 4; fill: rgb(208,210,213); fill-rule: nonzero; opacity: 1;" vector-effect="non-scaling-stroke" points="193.5,-35.5 193.5,-17.5 146.5,35.5 -193.5,27.37 -193.5,5.5 -82.5,-35.5 193.5,-35.5 "/>
</g>
<g transform="matrix(0.72 0 0 0.72 569.88 372.53)">
<polygon style="stroke: none; stroke-width: 1; stroke-dasharray: none; stroke-linecap: butt; stroke-dashoffset: 0; stroke-linejoin: miter; stroke-miterlimit: 4; fill: rgb(0,0,0); fill-rule: nonzero; opacity: 0.1;" vector-effect="non-scaling-stroke" points="193.5,-35.5 193.5,-17.5 146.5,35.5 -193.5,27.37 -193.5,5.5 146.5,14.5 193.5,-35.5 "/>
</g>
<g transform="matrix(0.72 0 0 0.72 549.72 279.29)">
<polygon style="stroke: none; stroke-width: 1; stroke-dasharray: none; stroke-linecap: butt; stroke-dashoffset: 0; stroke-linejoin: miter; stroke-miterlimit: 4; fill: rgb(63,61,86); fill-rule: nonzero; opacity: 1;" vector-effect="non-scaling-stroke" points="-47.5,112 -44.5,-109 47.5,-112 47.5,112 -47.5,112 "/>
</g>
<g transform="matrix(0.72 0 0 0.72 300.11 300.84)">
<path style="stroke: none; stroke-width: 1; stroke-dasharray: none; stroke-linecap: butt; stroke-dashoffset: 0; stroke-linejoin: miter; stroke-miterlimit: 4; fill: rgb(115,75,183); fill-rule: nonzero; opacity: 1;" vector-effect="non-scaling-stroke" transform=" translate(-437.78, -593.4)" d="M 398 589.89 L 409.05 596.89 L 402.34000000000003 584.6899999999999 C 404.2385944998928 583.1720491789156 406.5893876274379 582.3309719970545 409.02000000000004 582.3 L 409.20000000000005 582.3 C 409.96706746590877 582.3188192680627 410.7341195588672 582.2618765362711 411.49000000000007 582.13 L 415.24000000000007 584.51 L 413.63000000000005 581.59 C 416.28595358307507 580.6557219179947 418.578535791873 578.9056591631871 420.18000000000006 576.59 L 426.88000000000005 580.84 L 422.65000000000003 573.14 C 426.57000000000005 568.43 431.85 565.55 437.65000000000003 565.55 C 444.65000000000003 565.55 450.83000000000004 569.6899999999999 454.83000000000004 576.15 C 457.24264536973226 580.0834433319509 461.5777924618912 582.4227436554486 466.19000000000005 582.28 L 466.57000000000005 582.28 C 474.26000000000005 582.28 480.50000000000006 591.01 480.50000000000006 601.77 C 480.50000000000006 612.53 474.26000000000005 621.25 466.57000000000005 621.25 C 464.87885463929655 621.2481710534571 463.21381777313104 620.8327701033415 461.72 620.04 C 456.416656966409 617.46346507473 450.2500484293091 617.3428378775017 444.85 619.7099999999999 C 440.28983879624184 621.7438873398752 435.0801612037582 621.7438873398752 430.52000000000004 619.7099999999999 C 425.16198556441725 617.3928586127827 419.0624112163996 617.5132449485988 413.80000000000007 620.04 C 412.31780131009987 620.8126273924693 410.671484072845 621.2173470466278 409.00000000000006 621.2199999999999 C 401.31000000000006 621.2199999999999 395.07000000000005 612.4999999999999 395.07000000000005 601.7399999999999 C 395.0368591114204 597.606719392421 396.0444705841248 593.531567190528 398 589.89 Z" stroke-linecap="round"/>
</g>
<g transform="matrix(0.72 0 0 0.72 308.63 309.97)">
<path style="stroke: rgb(255,255,255); stroke-width: 1; stroke-dasharray: none; stroke-linecap: butt; stroke-dashoffset: 0; stroke-linejoin: miter; stroke-miterlimit: 4; fill: rgb(255,255,255); fill-rule: nonzero; opacity: 0.1;" vector-effect="non-scaling-stroke" transform=" translate(-449.63, -606.1)" d="M 418.78 618.4 C 422.80072650728596 617.6364885283269 426.9577939436507 618.089100560762 430.71999999999997 619.6999999999999 C 435.2838204055279 621.7330651357754 440.49617959447204 621.7330651357754 445.05999999999995 619.6999999999999 C 450.45665709140536 617.3332047168631 456.6200911177216 617.453841325919 461.91999999999996 620.03 C 463.4161122478122 620.8167701624504 465.0796474188636 621.2317964628571 466.77 621.24 C 473.60999999999996 621.24 479.28999999999996 614.35 480.47999999999996 605.24 C 479.1129245489516 604.2458414586243 477.95150602223714 602.9961279561949 477.05999999999995 601.5600000000001 C 473.05999999999995 595.1 466.8399999999999 590.95 459.87999999999994 590.95 C 452.91999999999996 590.95 446.7699999999999 595.0500000000001 442.75999999999993 601.44 C 440.3301267191794 605.3637305089876 436.024908407877 607.7306522942323 431.4099999999999 607.6800000000001 L 431.2299999999999 607.6800000000001 C 425.79 607.68 421.07 612 418.78 618.4 Z" stroke-linecap="round"/>
</g>
<g transform="matrix(0.72 0 0 0.72 176.35 289.71)">
<path style="stroke: none; stroke-width: 1; stroke-dasharray: none; stroke-linecap: butt; stroke-dashoffset: 0; stroke-linejoin: miter; stroke-miterlimit: 4; fill: rgb(0,0,0); fill-rule: nonzero; opacity: 0.1;" vector-effect="non-scaling-stroke" transform=" translate(-265.92, -577.94)" d="M 208.54 529.28 C 205.22 542.66 201.89 556.0799999999999 200.22 569.76 C 197.97449094103672 588.2365801141032 198.7853276965824 606.9567737077648 202.61999999999998 625.17 C 203.75 630.52 205.14000000000001 635.87 205.12 641.3399999999999 C 205.1 646.8099999999998 203.45000000000002 652.53 199.4 656.1899999999999 C 224.86 639.4899999999999 259.2 637.3399999999999 286.55 650.7299999999999 C 299.89 657.2599999999999 313.14 667.4899999999999 327.81 665.17 C 329.16 656.9399999999999 321.17 649.17 323.04 641 C 324.41 635.06 330.64000000000004 631.28 332.36 625.43 C 334.57 617.9599999999999 328.82 610.75 326.27000000000004 603.43 C 325.14841221735026 599.7731883801536 324.38810767299265 596.0152073283065 324 592.21 C 321.86 576.6600000000001 319 561.07 313.15 546.5 C 307.29999999999995 531.93 298.26 518.33 285.56 509.09000000000003 C 277.88 503.50000000000006 269.1 499.70000000000005 260.17 496.6 C 253.12 494.16 242.86 489.29 235.24 490.6 C 218.83 493.54 211.9 515.8 208.54 529.28 Z" stroke-linecap="round"/>
</g>
<g transform="matrix(0.72 0 0 0.72 174.19 287.55)">
<path style="stroke: none; stroke-width: 1; stroke-dasharray: none; stroke-linecap: butt; stroke-dashoffset: 0; stroke-linejoin: miter; stroke-miterlimit: 4; fill: rgb(47,46,65); fill-rule: nonzero; opacity: 1;" vector-effect="non-scaling-stroke" transform=" translate(-262.92, -574.94)" d="M 205.54 526.28 C 202.22 539.66 198.89 553.0799999999999 197.22 566.76 C 194.97449094103672 585.2365801141032 195.7853276965824 603.9567737077648 199.61999999999998 622.17 C 200.75 627.52 202.14000000000001 632.87 202.12 638.3399999999999 C 202.1 643.8099999999998 200.45000000000002 649.53 196.4 653.1899999999999 C 221.86 636.4899999999999 256.2 634.3399999999999 283.55 647.7299999999999 C 296.89 654.2599999999999 310.14 664.4899999999999 324.81 662.17 C 326.16 653.9399999999999 318.17 646.17 320.04 638 C 321.41 632.06 327.64000000000004 628.28 329.36 622.43 C 331.57 614.9599999999999 325.82 607.75 323.27000000000004 600.43 C 322.14841221735026 596.7731883801536 321.38810767299265 593.0152073283065 321 589.21 C 318.86 573.6600000000001 316 558.07 310.15 543.5 C 304.29999999999995 528.93 295.26 515.33 282.56 506.09000000000003 C 274.88 500.50000000000006 266.1 496.70000000000005 257.17 493.6 C 250.12 491.16 239.86 486.29 232.24 487.6 C 215.83 490.54 208.9 512.8 205.54 526.28 Z" stroke-linecap="round"/>
</g>
<g transform="matrix(0.72 0 0 0.72 549.59 203.75)">
<path style="stroke: none; stroke-width: 1; stroke-dasharray: none; stroke-linecap: butt; stroke-dashoffset: 0; stroke-linejoin: miter; stroke-miterlimit: 4; fill: rgb(208,210,213); fill-rule: nonzero; opacity: 1;" vector-effect="non-scaling-stroke" transform=" translate(-784.3, -458.54)" d="M 987.89 502.33 C 984.37 522.1999999999999 969.9399999999999 538.1 956.13 552.8199999999999 C 938.5 571.61 921.92 590.2 904.29 609 L 678.18 609 C 676.02 609 673.0999999999999 608.58 671.01 609.18 L 667.62 610.18 C 650.83 597.8299999999999 637.83 581.18 625.06 564.68 L 601.9399999999999 534.88 C 590.14 519.66 577.67 502.07 580.54 483.03 C 580.7214953349396 480.9954541778975 581.4544637694729 479.04893894845316 582.66 477.4 C 583.8408163694128 476.1742948837378 585.2508240149593 475.19238594503184 586.81 474.51 C 618.81 458.26 654.81 452.01 689.31 441.88 C 694.65 440.31 700.31 438.45 703.92 434.24 C 708.8 428.63 708.92 420.48 710.43 413.24 C 711.9399999999999 406 715.18 398.88 716.9899999999999 391.54 C 719.0799999999999 383.01000000000005 719.2399999999999 374.15000000000003 719.3799999999999 365.36 Q 719.6199999999999 351.18 719.8499999999999 337.01 Q 720.0799999999999 322.84 720.31 308.86 C 757.31 308.14 793.8299999999999 305.29 830.67 308.16 C 834.4399999999999 308.46000000000004 838.52 308.91 841.26 311.5 C 843.37 313.5 844.26 316.42 845.03 319.24 C 847.9599999999999 330.42 849.29 341.86 850.15 353.4 C 851.4 370.12 851.68 387.01 854.47 403.52 C 856.01 412.65 858.47 421.97999999999996 864.33 429.15999999999997 C 872.46 439.15999999999997 885.5600000000001 443.23999999999995 897.82 447.15999999999997 Q 935.9300000000001 459.28 972.82 474.76 C 976.5100000000001 476.31 980.2800000000001 477.95 983.1 480.76 C 988.56 486.14 989.23 494.76 987.89 502.33 Z" stroke-linecap="round"/>
</g>
<g transform="matrix(0.72 0 0 0.72 550.1 121.32)">
<path style="stroke: none; stroke-width: 1; stroke-dasharray: none; stroke-linecap: butt; stroke-dashoffset: 0; stroke-linejoin: miter; stroke-miterlimit: 4; fill: rgb(0,0,0); fill-rule: nonzero; opacity: 0.1;" vector-effect="non-scaling-stroke" transform=" translate(-785, -344.07)" d="M 850.15 353.34 C 842.6899999999999 361.45 827.91 366.27 819.52 370.87 C 811.13 375.47 802.52 380.11 793.1 381.06 C 781.97 382.19 771.0500000000001 378.06 760.62 374.06 C 755.01 371.88 749.37 369.68 744.29 366.46 C 733.29 359.46 726.18 348.62 719.8499999999999 336.99 Q 720.0799999999999 322.92 720.31 308.84000000000003 C 757.31 308.12 793.8299999999999 305.27000000000004 830.67 308.14000000000004 C 834.4399999999999 308.44000000000005 838.52 308.89000000000004 841.26 311.48 C 843.37 313.48 844.26 316.40000000000003 845.03 319.22 C 848 330.36 849.29 341.8 850.15 353.34 Z" stroke-linecap="round"/>
</g>
<g transform="matrix(0.72 0 0 0.72 551.22 56.31)">
<path style="stroke: none; stroke-width: 1; stroke-dasharray: none; stroke-linecap: butt; stroke-dashoffset: 0; stroke-linejoin: miter; stroke-miterlimit: 4; fill: rgb(208,210,213); fill-rule: nonzero; opacity: 1;" vector-effect="non-scaling-stroke" transform=" translate(-786.55, -253.78)" d="M 866.76 303.87 C 869.42 301.87 872.5699999999999 300.53000000000003 875.14 298.39 C 877.7642022174056 296.01546657083895 879.9242153287297 293.17387946363385 881.51 290.01 C 886.06 281.83 889.45 272.62 888.72 263.28999999999996 C 887.99 253.95999999999992 882.38 244.57999999999996 873.52 241.56999999999996 C 879.09 224.36999999999998 874.52 205.71999999999997 869.86 188.23999999999995 C 868.37 182.60999999999996 866.86 176.91999999999996 864.16 171.74999999999994 C 858.75 161.39999999999995 849.05 154.00999999999993 839.16 147.84999999999994 C 827.77 140.75999999999993 815.4399999999999 134.72999999999993 802.16 132.75999999999993 C 788.41 130.75999999999993 774.29 133.16999999999993 761.2099999999999 137.85999999999993 C 754.2099999999999 140.37999999999994 747.2099999999999 143.65999999999994 741.9899999999999 149.01999999999992 C 738.18 152.92999999999992 735.4799999999999 157.77999999999992 732.1199999999999 162.08999999999992 C 726.6799999999998 169.08999999999992 719.4799999999999 174.67999999999992 714.9799999999999 182.29999999999993 C 709.9799999999999 190.74999999999991 708.8299999999999 200.82999999999993 707.7599999999999 210.58999999999992 L 704.2 243 C 701.84 239.71 696.73 239.41 693.2 241.48 C 689.6700000000001 243.54999999999998 687.6500000000001 247.35999999999999 686.34 251.19 C 682.5563169064767 262.4651722607872 684.0241317988489 274.84252134071585 690.34 284.92 C 693.11 289.25 696.7 292.99 699.87 297.04 C 715.99 317.58000000000004 722.16 346.69 744.21 360.70000000000005 C 749.2900000000001 363.9200000000001 754.9300000000001 366.12000000000006 760.5400000000001 368.30000000000007 C 770.97 372.30000000000007 781.8900000000001 376.4700000000001 793.0200000000001 375.30000000000007 C 802.4800000000001 374.30000000000007 811.1000000000001 369.6700000000001 819.44 365.1000000000001 C 829.6500000000001 359.5100000000001 849.36 353.5700000000001 853.7700000000001 341.7800000000001 C 858.69 328.94 854 313.53 866.76 303.87 Z" stroke-linecap="round"/>
</g>
<g transform="matrix(0.72 0 0 0.72 551.94 101.18)">
<path style="stroke: none; stroke-width: 1; stroke-dasharray: none; stroke-linecap: butt; stroke-dashoffset: 0; stroke-linejoin: miter; stroke-miterlimit: 4; fill: rgb(0,0,0); fill-rule: nonzero; opacity: 0.1;" vector-effect="non-scaling-stroke" transform=" translate(-787.56, -316.1)" d="M 761.6 312.35 C 764.46 310.23 767.19 307.86 770.4200000000001 306.35 C 774.886368316301 304.31817976401544 779.9678600831338 304.10301426930124 784.59 305.75 C 785.4966513348584 306.17076138913524 786.4728161155927 306.4215815064073 787.47 306.49 C 788.7487194144162 306.29808445424567 789.9780828690881 305.8599963723322 791.09 305.2 C 795.52 303.27 800.6700000000001 304.67 805.09 306.62 C 810.9470643942665 309.3890348578803 816.5747835514221 312.61920521189836 821.9200000000001 316.28 C 819.7881480332987 316.94898248960465 817.7172963135267 317.7987342453754 815.73 318.82000000000005 C 813.44 320.00000000000006 811.26 321.41 808.97 322.6 C 803.1849178058956 325.4404613879222 796.9146421133355 327.16071559578364 790.49 327.67 C 788.7666326905974 327.85802349038573 787.033460426967 327.94150963025237 785.3 327.92 C 778.2299999999999 327.78000000000003 771.4499999999999 325.23 764.8399999999999 322.71000000000004 L 759 320.51 L 756.09 319.40999999999997 C 755.5 319.17999999999995 753.63 318.83 753.3000000000001 318.32 C 752.61 317.32 755.7700000000001 316.15999999999997 756.6700000000001 315.62 C 758.38 314.61 760 313.51 761.6 312.35 Z" stroke-linecap="round"/>
</g>
<g transform="matrix(0.72 0 0 0.72 581.23 43.85)">
<path style="stroke: none; stroke-width: 1; stroke-dasharray: none; stroke-linecap: butt; stroke-dashoffset: 0; stroke-linejoin: miter; stroke-miterlimit: 4; fill: rgb(0,0,0); fill-rule: nonzero; opacity: 0.1;" vector-effect="non-scaling-stroke" transform=" translate(-828.25, -236.46)" d="M 819 233.08 C 819.7657604700287 232.7359865834182 820.550343787264 232.43550786617917 821.35 232.18 C 830.9189078723102 229.15885772594038 841.3094436302715 233.11222890078224 846.45 241.73 C 845.72 241.89000000000001 845.09 241.27 844.5300000000001 240.78000000000003 C 842.9592044510559 239.61417722643657 841.2323035386598 238.67498550215095 839.4000000000001 237.99000000000004 C 838.19 237.42000000000004 837.0200000000001 236.76000000000005 835.7900000000001 236.24000000000004 C 831.4074865792036 234.5393880184294 826.6019719346696 234.25609348698308 822.0500000000001 235.43000000000004 C 817.6800000000001 236.43000000000004 814.0500000000001 238.63000000000002 810.0500000000001 240.54000000000005 C 810.0500000000001 239.09000000000006 812.7700000000001 237.10000000000005 813.83 236.23000000000005 C 815.4048896049708 234.95377588365028 817.1436965477278 233.89434805585825 819 233.08 Z" stroke-linecap="round"/>
</g>
<g transform="matrix(0.72 0 0 0.72 581.54 50.76)">
<path style="stroke: none; stroke-width: 1; stroke-dasharray: none; stroke-linecap: butt; stroke-dashoffset: 0; stroke-linejoin: miter; stroke-miterlimit: 4; fill: rgb(0,0,0); fill-rule: nonzero; opacity: 0.1;" vector-effect="non-scaling-stroke" transform=" translate(-828.67, -246.07)" d="M 830 247.79 C 834.34 247.92999999999998 839 247.45 842.38 244.79 C 840.32 244.59 838.31 245.32 836.3 245.79 C 832.6206860473789 246.6597809409152 828.7928165364851 246.69054060662774 825.0999999999999 245.88 C 823.2599999999999 245.47 821.4599999999999 244.88 819.5899999999999 244.54999999999998 C 818.0562973873597 244.1975319573469 816.4554975976883 244.2701384272888 814.9599999999999 244.76 C 815.4399999999999 246.14999999999998 820.55 246.67 821.9599999999999 246.92999999999998 C 824.6150553133899 247.4150260497789 827.3024252709735 247.70248104524183 830 247.79 Z" stroke-linecap="round"/>
</g>
<g transform="matrix(0.72 0 0 0.72 521.75 43.85)">
<path style="stroke: none; stroke-width: 1; stroke-dasharray: none; stroke-linecap: butt; stroke-dashoffset: 0; stroke-linejoin: miter; stroke-miterlimit: 4; fill: rgb(0,0,0); fill-rule: nonzero; opacity: 0.1;" vector-effect="non-scaling-stroke" transform=" translate(-745.63, -236.46)" d="M 754.9 233.08 C 754.1349278125119 232.73433343973122 753.3502482800591 232.43381787411099 752.55 232.18 C 742.9810921276897 229.15885772594038 732.5905563697285 233.11222890078224 727.4499999999999 241.73000000000002 C 728.18 241.89000000000001 728.81 241.27 729.3799999999999 240.78000000000003 C 730.947793468987 239.61772143100265 732.6713633952692 238.68187682259165 734.5 238 C 735.71 237.43 736.88 236.77 738.11 236.25 C 742.4959632210096 234.5492536064646 747.3046866732159 234.26597607946186 751.86 235.44 C 756.22 236.44 759.86 238.64 763.8100000000001 240.55 C 763.8100000000001 239.10000000000002 761.08 237.11 760.0200000000001 236.24 C 758.462710071673 234.96190491451597 756.7406093591978 233.89904588103522 754.9 233.08 Z" stroke-linecap="round"/>
</g>
<g transform="matrix(0.72 0 0 0.72 521.45 50.76)">
<path style="stroke: none; stroke-width: 1; stroke-dasharray: none; stroke-linecap: butt; stroke-dashoffset: 0; stroke-linejoin: miter; stroke-miterlimit: 4; fill: rgb(0,0,0); fill-rule: nonzero; opacity: 0.1;" vector-effect="non-scaling-stroke" transform=" translate(-745.22, -246.07)" d="M 743.88 247.79 C 739.55 247.92999999999998 734.88 247.45 731.51 244.79 C 733.5699999999999 244.59 735.58 245.32 737.59 245.79 C 741.2659505939886 246.65962914584443 745.0905371885174 246.6903898959345 748.7800000000001 245.88 C 750.6300000000001 245.47 752.4300000000001 244.88 754.2900000000001 244.54999999999998 C 755.827117433056 244.19821063915208 757.430944691847 244.27079764870945 758.9300000000001 244.76 C 758.45 246.14999999999998 753.33 246.67 751.9300000000001 246.92999999999998 C 749.2715045831535 247.4145021742581 746.5808494257077 247.70195104822128 743.88 247.79 Z" stroke-linecap="round"/>
</g>
<g transform="matrix(0.72 0 0 0.72 541.65 79.09)">
<ellipse style="stroke: none; stroke-width: 1; stroke-dasharray: none; stroke-linecap: butt; stroke-dashoffset: 0; stroke-linejoin: miter; stroke-miterlimit: 4; fill: rgb(0,0,0); fill-rule: nonzero; opacity: 0.1;" vector-effect="non-scaling-stroke" cx="0" cy="0" rx="6.36" ry="2.55"/>
</g>
<g transform="matrix(0.72 0 0 0.72 561.82 79.09)">
<ellipse style="stroke: none; stroke-width: 1; stroke-dasharray: none; stroke-linecap: butt; stroke-dashoffset: 0; stroke-linejoin: miter; stroke-miterlimit: 4; fill: rgb(0,0,0); fill-rule: nonzero; opacity: 0.1;" vector-effect="non-scaling-stroke" cx="0" cy="0" rx="6.36" ry="2.55"/>
</g>
<g transform="matrix(0.72 0 0 0.72 486.85 211.86)">
<path style="stroke: none; stroke-width: 1; stroke-dasharray: none; stroke-linecap: butt; stroke-dashoffset: 0; stroke-linejoin: miter; stroke-miterlimit: 4; fill: rgb(0,0,0); fill-rule: nonzero; opacity: 0.1;" vector-effect="non-scaling-stroke" transform=" translate(-697.16, -469.81)" d="M 652.27 471.87 C 660.3606840866559 469.03241968938846 668.8868754249726 467.63790169360186 677.46 467.75 C 685.84 467.86 694.13 469.41 702.46 470.28 C 715.6 471.65999999999997 728.84 471.34999999999997 742.0500000000001 471.03999999999996" stroke-linecap="round"/>
</g>
<g transform="matrix(0.72 0 0 0.72 603.34 211.86)">
<path style="stroke: none; stroke-width: 1; stroke-dasharray: none; stroke-linecap: butt; stroke-dashoffset: 0; stroke-linejoin: miter; stroke-miterlimit: 4; fill: rgb(0,0,0); fill-rule: nonzero; opacity: 0.1;" vector-effect="non-scaling-stroke" transform=" translate(-858.94, -469.81)" d="M 903.83 471.87 C 895.7393159133442 469.03241968938846 887.2131245750275 467.63790169360186 878.64 467.75 C 870.26 467.86 861.97 469.41 853.64 470.28 C 840.5 471.65999999999997 827.26 471.34999999999997 814.06 471.03999999999996" stroke-linecap="round"/>
</g>
<g transform="matrix(0.72 0 0 0.72 549.58 261.03)">
<path style="stroke: none; stroke-width: 1; stroke-dasharray: none; stroke-linecap: butt; stroke-dashoffset: 0; stroke-linejoin: miter; stroke-miterlimit: 4; fill: rgb(0,0,0); fill-rule: nonzero; opacity: 0.1;" vector-effect="non-scaling-stroke" transform=" translate(-784.29, -538.11)" d="M 758.57 518 C 761.86 527 772.95 530.72 777.8000000000001 539 C 779.3240714892567 541.9020991616027 780.4380296602602 545.0016625316763 781.11 548.21 L 783.69 558.21 C 782.69 553.2800000000001 781.69 548.2900000000001 781.97 543.27 C 782.25 538.2499999999999 784.07 533.12 787.85 529.81 C 789.9300623964867 528.171568327829 792.224716697804 526.8257300279363 794.6700000000001 525.81 L 810 518.54" stroke-linecap="round"/>
</g>
<g transform="matrix(0.72 0 0 0.72 249.74 109.53)">
<path style="stroke: none; stroke-width: 1; stroke-dasharray: none; stroke-linecap: butt; stroke-dashoffset: 0; stroke-linejoin: miter; stroke-miterlimit: 4; fill: rgb(0,0,0); fill-rule: nonzero; opacity: 0.1;" vector-effect="non-scaling-stroke" transform=" translate(-367.85, -327.69)" d="M 366.14 308.15 C 361.3 312.9 361.14 320.46 359.83 327.15 C 357.83 337.01 356.28 342.53999999999996 349.21999999999997 348.58 C 350.51 350.09 352.03 351.46999999999997 353.96 351.58 C 355.3868016860648 351.48584188104223 356.78057015624 351.108504563507 358.06 350.46999999999997 L 366.48 347.03 C 375.05 340.4 376.70000000000005 334.79999999999995 378.83000000000004 324.17999999999995 C 380.16 317.53 380.30000000000007 309.96999999999997 385.14000000000004 305.17999999999995 C 385.56019405113767 304.77301589519334 386.0079201570964 304.39545582076545 386.48 304.04999999999995 C 378.88 303.64 371.26 303.13 366.14 308.15 Z" stroke-linecap="round"/>
</g>
<g transform="matrix(0.72 0 0 0.72 325.06 39.67)">
<path style="stroke: none; stroke-width: 1; stroke-dasharray: none; stroke-linecap: butt; stroke-dashoffset: 0; stroke-linejoin: miter; stroke-miterlimit: 4; fill: rgb(0,0,0); fill-rule: nonzero; opacity: 0.1;" vector-effect="non-scaling-stroke" transform=" translate(-472.45, -230.67)" d="M 537 258 C 541.7422074855691 255.4969793068367 546.6503724023729 253.32188375827354 551.6899999999999 251.49000000000004 C 550.37 247.43 541.5100000000001 250.67000000000002 541.0600000000001 246.41 C 541.0712615248473 245.30264602566922 541.4833599360549 244.23687427254623 542.22 243.41 L 550.86 231.09 C 542.65 233.19 534.36 227.51 529.19 220.79 C 524.0200000000001 214.07 520.5500000000001 206.01999999999998 514.48 200.1 C 502.33000000000004 188.26999999999998 483.39000000000004 187.95 466.48 188.37 L 435.15000000000003 189.14000000000001 C 421.08000000000004 189.49 406.87 189.87 393.22 193.21 C 400.83000000000004 192.53 408.51000000000005 192.33 416.15000000000003 192.14000000000001 L 447.48 191.37 C 464.43 190.95000000000002 483.37 191.27 495.48 203.1 C 501.55 209.01999999999998 505.02000000000004 217.1 510.19 223.79 C 515.3599999999999 230.48 523.65 236.19 531.86 234.09 L 523.22 246.41 C 522.4833599360549 247.23687427254623 522.0712615248473 248.30264602566922 522.0600000000001 249.41 C 522.5100000000001 253.67 531.37 250.41 532.69 254.49 C 527.6503724023729 256.32188375827354 522.742207485569 258.4969793068367 518 261 C 518.8606432063389 262.79899527379524 520.6381717978932 263.9814548984145 522.63 264.08 C 515.7771861809886 267.56806146706316 508.6900887264981 270.5753163982472 501.42 273.0799999999999 L 503.02000000000004 273.08 C 516.62 272.97999999999996 529.38 266.94 541.63 261.03 C 539.6492125770562 260.9410818247025 537.8743730455637 259.7795777684558 537 258 Z" stroke-linecap="round"/>
</g>
<g transform="matrix(0.72 0 0 0.72 289.13 79.99)">
<path style="stroke: none; stroke-width: 1; stroke-dasharray: none; stroke-linecap: butt; stroke-dashoffset: 0; stroke-linejoin: miter; stroke-miterlimit: 4; fill: rgb(0,0,0); fill-rule: nonzero; opacity: 0.1;" vector-effect="non-scaling-stroke" transform=" translate(-422.55, -286.66)" d="M 435.26 272.27 C 428.95 272.54999999999995 422.12 273.46999999999997 417.67 277.94 C 411.61 284.01 411.94 294.68 405.44 300.28 C 405.16044009631656 300.5270442541782 404.8665999692465 300.7574416265399 404.56 300.96999999999997 C 411.86 301.34 419.23 301.78 424.44 297.28 C 430.94 291.67999999999995 430.61 281.01 436.67 274.94 C 437.80788510152837 273.8126758768234 439.11332325694633 272.86817281863983 440.54 272.14 C 438.78 272.16 437 272.19 435.26 272.27 Z" stroke-linecap="round"/>
</g>
</svg>